<svg xmlns="http://www.w3.org/2000/svg"  viewBox="0 0 50 50" width="80px" height="80px" fill="white"><path d="M 28.8125 1.875 C 28.382813 1.875 28.261719 2.003906 28.0625 2.09375 C 27.863281 2.183594 27.648438 2.296875 27.40625 2.4375 C 26.925781 2.71875 26.332031 3.085938 25.65625 3.5625 C 24.300781 4.515625 22.628906 5.835938 20.96875 7.28125 C 19.308594 8.726563 17.65625 10.308594 16.40625 11.84375 C 15.15625 13.378906 14.21875 14.820313 14.21875 16.375 C 14.21875 16.894531 14.496094 17.296875 14.75 17.53125 C 15.003906 17.765625 15.28125 17.910156 15.5625 18.0625 C 16.125 18.367188 16.761719 18.648438 17.375 18.96875 C 17.988281 19.289063 18.539063 19.640625 18.90625 20.03125 C 19.230469 20.375 19.367188 20.71875 19.40625 21.15625 C 18.242188 21.304688 16.964844 21.5625 15.78125 22.28125 C 14.261719 23.207031 13 24.871094 13 27.1875 C 13 27.90625 13.214844 28.53125 13.46875 29.03125 C 13.667969 29.429688 13.894531 29.683594 14.125 29.9375 C 14.300781 30.859375 14.777344 31.636719 15.375 32.09375 C 16.085938 32.640625 16.730469 32.9375 17.5 32.9375 C 17.890625 32.9375 18.246094 32.707031 18.40625 32.351563 C 18.566406 31.992188 18.507813 31.578125 18.25 31.28125 C 18.25 31.28125 18.070313 31.019531 18 30.71875 C 18.019531 30.6875 18.03125 30.675781 18.09375 30.625 C 18.304688 30.460938 18.636719 30.253906 19 30.0625 C 19.632813 29.730469 20.15625 29.53125 20.3125 29.46875 L 22.21875 29.4375 C 22.273438 29.566406 22.40625 29.839844 22.40625 30.75 C 22.40625 31.601563 22.027344 32.25 21.53125 33.0625 C 21.035156 33.875 20.375 34.851563 20.375 36.15625 C 20.375 36.933594 20.890625 37.367188 21.34375 37.6875 C 21.796875 38.007813 22.328125 38.277344 22.96875 38.53125 C 24.246094 39.039063 25.890625 39.496094 27.625 39.90625 C 31.09375 40.726563 34.839844 41.308594 36.34375 41.4375 C 39.15625 41.679688 41 41.5625 41 41.5625 C 41.273438 41.539063 41.523438 41.40625 41.691406 41.195313 C 41.863281 40.980469 41.941406 40.707031 41.90625 40.4375 C 41.90625 40.4375 41.863281 39.796875 41.59375 39.0625 C 41.324219 38.328125 40.796875 37.328125 39.65625 37 C 39.578125 36.976563 38.867188 36.753906 38.53125 36.65625 C 38.40625 36.195313 38.308594 35.742188 38.0625 35.21875 C 37.882813 34.832031 37.671875 34.46875 37.4375 34.125 C 37.203125 33.78125 36.992188 33.4375 36.53125 33.1875 C 36.519531 33.1875 36.511719 33.1875 36.5 33.1875 C 36.28125 33.070313 36.253906 33.089844 36.09375 33.03125 C 35.933594 32.972656 35.734375 32.894531 35.5 32.8125 C 35.480469 32.589844 35.464844 32.402344 35.40625 31.96875 C 35.363281 31.648438 35.296875 31.3125 35.21875 31 C 35.179688 30.84375 35.160156 30.691406 35.09375 30.53125 C 35.027344 30.371094 34.976563 30.175781 34.65625 29.9375 C 34.28125 29.65625 33.945313 29.585938 33.53125 29.4375 C 33.5 29.425781 33.46875 29.417969 33.4375 29.40625 L 32.84375 27.96875 C 32.746094 27.765625 32.578125 27.597656 32.375 27.5 C 32.375 27.5 32.050781 27.3125 31.875 27.21875 C 33.585938 26.433594 35.183594 25.378906 36.46875 24.4375 C 38.078125 23.257813 39.761719 23.125 41.1875 23.28125 C 41.898438 23.359375 42.542969 23.515625 43.03125 23.65625 C 43.277344 23.726563 43.476563 23.789063 43.65625 23.84375 C 43.835938 23.898438 43.847656 23.980469 44.3125 23.96875 C 44.628906 23.960938 44.703125 23.886719 44.78125 23.84375 C 44.859375 23.800781 44.925781 23.75 44.96875 23.71875 C 45.054688 23.652344 45.113281 23.601563 45.1875 23.53125 C 45.332031 23.394531 45.503906 23.238281 45.6875 23.03125 C 46.054688 22.621094 46.511719 22.0625 46.96875 21.4375 C 47.882813 20.183594 48.84375 18.726563 49 17.21875 C 49.023438 16.945313 48.933594 16.671875 48.75 16.46875 C 45.699219 12.90625 41 12.96875 41 12.96875 C 40.695313 12.96875 40.410156 13.105469 40.21875 13.34375 C 40.21875 13.34375 39.367188 14.457031 38.125 15.5625 C 36.882813 16.667969 35.242188 17.695313 33.96875 17.75 C 33.171875 17.785156 31.046875 17.835938 28.78125 18.25 C 28.894531 17.804688 28.890625 17.367188 28.78125 17.03125 C 28.65625 16.644531 28.464844 16.3125 28.28125 16.03125 C 28.160156 15.847656 28.144531 15.863281 28.03125 15.71875 C 28.066406 15.671875 28.09375 15.636719 28.125 15.59375 C 28.753906 14.652344 28.46875 13.78125 28.25 13.0625 C 28.164063 12.785156 28.039063 12.535156 27.9375 12.3125 C 28.164063 12.046875 28.410156 11.773438 28.53125 11.625 C 29 11.054688 28.90625 10.675781 28.9375 10.21875 C 28.96875 9.761719 28.976563 9.269531 28.9375 8.78125 C 28.898438 8.292969 28.824219 7.839844 28.71875 7.4375 C 28.710938 7.40625 28.695313 7.375 28.6875 7.34375 C 29.148438 6.828125 29.503906 6.433594 29.71875 6.125 C 29.933594 5.820313 29.90625 5.707031 29.9375 5.5625 C 29.96875 5.417969 29.984375 5.28125 30 5.125 C 30.03125 4.816406 30.066406 4.445313 30.0625 4.09375 C 30.058594 3.742188 30.027344 3.417969 29.96875 3.09375 C 29.941406 2.929688 29.910156 2.773438 29.8125 2.5625 C 29.761719 2.457031 29.714844 2.332031 29.5625 2.1875 C 29.410156 2.042969 29.125 1.875 28.8125 1.875 Z M 20.03125 2.15625 C 8.203125 3.691406 -0.800781 14.214844 0.0625 26.625 C 0.867188 38.148438 10.398438 47.429688 21.9375 47.96875 C 26.457031 48.179688 30.703125 47.089844 34.34375 45.03125 C 34.871094 44.730469 35.078125 44.03125 34.90625 43.53125 C 34.734375 43.03125 34.132813 42.59375 33.53125 42.6875 C 31.621094 42.984375 29.613281 43.023438 27.5625 42.75 C 18.402344 41.523438 11.097656 34.03125 10.09375 24.84375 C 9.136719 16.074219 13.730469 8.296875 20.78125 4.53125 C 20.792969 4.523438 20.800781 4.507813 20.8125 4.5 C 21.324219 4.199219 21.570313 3.488281 21.40625 3 C 21.238281 2.5 20.636719 2.078125 20.03125 2.15625 Z M 28.0625 4.40625 C 28.058594 4.585938 28.046875 4.769531 28.03125 4.90625 C 28.023438 4.988281 27.976563 5.046875 27.96875 5.09375 C 27.878906 5.199219 27.570313 5.59375 27.09375 6.125 C 27.019531 6.207031 26.921875 6.320313 26.84375 6.40625 C 26.820313 6.425781 26.800781 6.445313 26.78125 6.46875 C 26.722656 6.515625 26.671875 6.566406 26.625 6.625 C 26.613281 6.644531 26.601563 6.667969 26.59375 6.6875 C 26.152344 7.175781 25.675781 7.65625 25.1875 8.1875 C 23.855469 9.636719 22.59375 11 22.59375 11 C 22.214844 11.40625 22.234375 12.042969 22.640625 12.421875 C 23.046875 12.800781 23.683594 12.78125 24.0625 12.375 C 24.0625 12.375 25.320313 11.015625 26.65625 9.5625 C 26.753906 9.453125 26.839844 9.359375 26.9375 9.25 C 26.953125 9.554688 26.953125 9.859375 26.9375 10.09375 C 26.917969 10.40625 26.71875 10.648438 26.96875 10.34375 C 26.4375 10.988281 24 13.8125 24 13.8125 C 23.730469 14.074219 23.628906 14.46875 23.738281 14.828125 C 23.851563 15.1875 24.15625 15.457031 24.527344 15.519531 C 24.902344 15.582031 25.277344 15.429688 25.5 15.125 C 25.5 15.125 26.09375 14.453125 26.40625 14.09375 C 26.410156 14.238281 26.425781 14.566406 26.46875 14.5 C 26.214844 14.878906 25.15625 16.15625 25.15625 16.15625 C 24.902344 16.425781 24.816406 16.816406 24.9375 17.167969 C 25.058594 17.519531 25.363281 17.773438 25.730469 17.832031 C 26.097656 17.886719 26.464844 17.738281 26.6875 17.4375 C 26.6875 17.4375 26.746094 17.378906 26.75 17.375 C 26.800781 17.46875 26.851563 17.589844 26.875 17.65625 C 26.894531 17.71875 26.898438 17.769531 26.90625 17.78125 C 26.640625 18.4375 26.28125 19.03125 26.28125 19.03125 C 26.078125 19.390625 26.121094 19.839844 26.382813 20.15625 C 26.644531 20.472656 27.078125 20.597656 27.46875 20.46875 C 29.921875 19.617188 32.671875 19.8125 34.0625 19.75 C 36.203125 19.65625 38.074219 18.273438 39.46875 17.03125 C 40.613281 16.007813 41.113281 15.359375 41.375 15.03125 C 41.59375 15.039063 42.214844 15.105469 43 15.3125 L 41.90625 15.96875 C 41.429688 16.253906 41.277344 16.871094 41.5625 17.34375 C 41.847656 17.820313 42.460938 17.972656 42.9375 17.6875 L 45.28125 16.28125 C 45.785156 16.582031 46.300781 16.9375 46.78125 17.40625 C 46.699219 17.6875 46.542969 18.03125 46.375 18.40625 L 43.5 18.5 C 42.949219 18.515625 42.515625 18.980469 42.53125 19.53125 C 42.546875 20.082031 43.011719 20.515625 43.5625 20.5 L 45.1875 20.4375 C 44.828125 20.917969 44.460938 21.382813 44.1875 21.6875 C 44.109375 21.777344 44.0625 21.808594 44 21.875 C 43.867188 21.835938 43.746094 21.800781 43.5625 21.75 C 43.011719 21.59375 42.277344 21.40625 41.40625 21.3125 C 39.664063 21.125 37.378906 21.308594 35.28125 22.84375 C 33.46875 24.171875 31.332031 25.726563 29.5 26.09375 C 29.023438 26.183594 28.679688 26.605469 28.6875 27.09375 C 28.6875 27.667969 28.921875 27.726563 29 27.8125 C 29.078125 27.898438 29.132813 27.925781 29.1875 27.96875 C 29.296875 28.054688 29.414063 28.113281 29.53125 28.1875 C 29.714844 28.300781 29.9375 28.441406 30.15625 28.5625 C 29.707031 28.652344 29.375 29.035156 29.355469 29.496094 C 29.332031 29.953125 29.625 30.367188 30.0625 30.5 C 30.0625 30.5 30.820313 30.699219 31.65625 30.9375 C 32.074219 31.054688 32.527344 31.191406 32.875 31.3125 C 33.128906 31.402344 33.203125 31.464844 33.28125 31.5 C 33.320313 31.648438 33.371094 31.871094 33.40625 32.09375 C 32.523438 31.792969 31.5625 31.46875 31.5625 31.46875 C 31.035156 31.296875 30.46875 31.582031 30.296875 32.109375 C 30.125 32.636719 30.410156 33.203125 30.9375 33.375 C 30.9375 33.375 32.058594 33.726563 33.21875 34.125 C 33.796875 34.324219 34.386719 34.527344 34.84375 34.6875 C 35.070313 34.769531 35.265625 34.855469 35.40625 34.90625 C 35.523438 34.949219 35.574219 34.992188 35.53125 34.96875 C 35.542969 34.988281 35.671875 35.085938 35.78125 35.25 C 35.910156 35.441406 36.054688 35.695313 36.1875 35.96875 C 34.433594 35.453125 32.5625 34.90625 32.5625 34.90625 C 32.027344 34.75 31.46875 35.058594 31.3125 35.59375 C 31.15625 36.128906 31.464844 36.6875 32 36.84375 C 32 36.84375 38.554688 38.773438 39.125 38.9375 C 39.25 38.972656 39.414063 39.257813 39.5625 39.53125 C 38.90625 39.554688 38.386719 39.601563 36.5 39.4375 C 35.257813 39.332031 31.457031 38.761719 28.09375 37.96875 C 26.410156 37.570313 24.828125 37.097656 23.71875 36.65625 C 23.164063 36.4375 22.730469 36.222656 22.5 36.0625 C 22.425781 36.007813 22.425781 35.988281 22.40625 35.96875 C 22.472656 35.433594 22.789063 34.875 23.25 34.125 C 23.765625 33.28125 24.40625 32.1875 24.40625 30.75 C 24.40625 29.503906 24.230469 28.757813 23.90625 28.21875 C 23.746094 27.949219 23.53125 27.722656 23.3125 27.59375 C 23.09375 27.464844 22.75 27.4375 22.75 27.4375 C 22.730469 27.4375 22.707031 27.4375 22.6875 27.4375 L 20.09375 27.46875 C 19.976563 27.46875 19.859375 27.492188 19.75 27.53125 C 19.75 27.53125 18.9375 27.867188 18.09375 28.3125 C 17.671875 28.535156 17.222656 28.765625 16.84375 29.0625 C 16.601563 29.25 16.363281 29.507813 16.1875 29.84375 C 16.125 29.707031 15.96875 29.59375 15.96875 29.4375 C 15.96875 29.148438 15.84375 28.875 15.625 28.6875 C 15.664063 28.722656 15.4375 28.4375 15.28125 28.125 C 15.125 27.8125 15 27.445313 15 27.1875 C 15 25.550781 15.746094 24.664063 16.84375 24 C 17.941406 23.335938 19.417969 23.011719 20.5 22.96875 C 21.015625 22.9375 21.421875 22.515625 21.4375 22 C 21.4375 21.890625 21.46875 21.5625 21.46875 21.3125 C 21.46875 20.234375 20.992188 19.316406 20.375 18.65625 C 19.757813 17.996094 19.015625 17.554688 18.3125 17.1875 C 17.609375 16.820313 16.921875 16.542969 16.5 16.3125 C 16.375 16.242188 16.351563 16.203125 16.28125 16.15625 C 16.371094 15.523438 16.925781 14.375 17.96875 13.09375 C 19.101563 11.699219 20.675781 10.175781 22.28125 8.78125 C 23.886719 7.386719 25.519531 6.128906 26.8125 5.21875 C 27.316406 4.863281 27.695313 4.632813 28.0625 4.40625 Z M 16.9375 4.90625 C 10.960938 9.46875 7.191406 16.800781 8.09375 25.0625 C 9.199219 35.171875 17.230469 43.367188 27.3125 44.71875 C 28.160156 44.832031 28.949219 44.667969 29.78125 44.6875 C 27.339844 45.527344 24.761719 46.097656 22 45.96875 C 11.480469 45.480469 2.792969 37.003906 2.0625 26.5 C 1.355469 16.34375 7.847656 7.65625 16.9375 4.90625 Z M 16.5 27 C 16.222656 27 16 27.222656 16 27.5 C 16 27.777344 16.222656 28 16.5 28 C 16.777344 28 17 27.777344 17 27.5 C 17 27.222656 16.777344 27 16.5 27 Z" fill="white"/></svg>